<?xml version="1.0" encoding="iso-8859-1"?>
<!-- Generator: Adobe Illustrator 16.0.0, SVG Export Plug-In . SVG Version: 6.00 Build 0)  -->
<!DOCTYPE svg PUBLIC "-//W3C//DTD SVG 1.1//EN" "http://www.w3.org/Graphics/SVG/1.1/DTD/svg11.dtd">
<svg version="1.1" id="Capa_1" xmlns="http://www.w3.org/2000/svg" xmlns:xlink="http://www.w3.org/1999/xlink" x="0px" y="0px"
	 width="788.381px" height="788.381px" viewBox="0 0 788.381 788.381" style="enable-background:new 0 0 788.381 788.381;"
	 xml:space="preserve">
<g>
	<g>
		<path d="M690.505,190.755L508.24,9.645C502.008,3.439,493.625,0,484.812,0H121.304c-18.216,0-33.1,14.831-33.1,33.127v722.127
			c0,18.377,14.884,33.127,33.1,33.127h545.747c18.377,0,33.126-14.75,33.126-33.127V214.29
			C700.204,205.451,696.685,196.961,690.505,190.755z M633.924,722.127H154.485V66.28h316.733L633.95,228.019v494.108H633.924z"/>
		<path d="M193.684,283.418c0,18.323,14.911,33.127,33.126,33.127h331.375c18.27,0,33.127-14.831,33.127-33.127
			c0-18.323-14.884-33.127-33.127-33.127H226.81C208.567,250.292,193.684,265.095,193.684,283.418z"/>
		<path d="M226.81,202.657h178.127c18.27,0,33.127-14.804,33.127-33.127s-14.885-33.127-33.127-33.127H226.81
			c-18.243,0-33.127,14.831-33.127,33.127C193.684,187.826,208.567,202.657,226.81,202.657z"/>
		<path d="M558.186,362.138H226.81c-18.243,0-33.126,14.831-33.126,33.126c0,18.323,14.911,33.127,33.126,33.127h331.375
			c18.27,0,33.127-14.83,33.127-33.127C591.312,376.942,576.455,362.138,558.186,362.138z"/>
		<path d="M558.186,473.958H226.81c-18.243,0-33.126,14.831-33.126,33.127c0,18.323,14.911,33.127,33.126,33.127h331.375
			c18.27,0,33.127-14.831,33.127-33.127S576.455,473.958,558.186,473.958z"/>
		<path d="M558.186,585.805H226.81c-18.243,0-33.126,14.831-33.126,33.127c0,18.323,14.911,33.127,33.126,33.127h331.375
			c18.27,0,33.127-14.804,33.127-33.127S576.455,585.805,558.186,585.805z"/>
	</g>
</g>
<g>
</g>
<g>
</g>
<g>
</g>
<g>
</g>
<g>
</g>
<g>
</g>
<g>
</g>
<g>
</g>
<g>
</g>
<g>
</g>
<g>
</g>
<g>
</g>
<g>
</g>
<g>
</g>
<g>
</g>
</svg>
