<?xml version="1.0" encoding="iso-8859-1"?>
<!-- Generator: Adobe Illustrator 16.0.0, SVG Export Plug-In . SVG Version: 6.00 Build 0)  -->
<!DOCTYPE svg PUBLIC "-//W3C//DTD SVG 1.1//EN" "http://www.w3.org/Graphics/SVG/1.1/DTD/svg11.dtd">
<svg version="1.1" id="Capa_1" xmlns="http://www.w3.org/2000/svg" xmlns:xlink="http://www.w3.org/1999/xlink" x="0px" y="0px"
	 width="750.061px" height="750.061px" viewBox="0 0 750.061 750.061" style="enable-background:new 0 0 750.061 750.061;"
	 xml:space="preserve">
<g>
	<g>
		<g>
			<path d="M375.087,361.758c-99.701,0-180.936-81.12-180.936-180.937C194.151,81.143,275.386,0,375.087,0
				c99.703,0,180.822,81.143,180.822,180.845C555.909,280.639,474.767,361.758,375.087,361.758z M375.087,56.596
				c-68.524,0-124.34,55.793-124.34,124.249c0,68.571,55.816,124.341,124.34,124.341c68.525,0,124.25-55.77,124.25-124.341
				C499.313,112.366,443.612,56.596,375.087,56.596z"/>
		</g>
		<g>
			<path d="M372.656,750.061c-3.533,0-6.974-0.666-10.392-1.996L86.924,639.209c-10.713-4.199-17.894-14.707-17.894-26.314
				c0-168.641,137.28-305.828,306.057-305.828c168.664,0,305.943,137.166,305.943,305.828c0,11.723-7.065,22.23-18.009,26.406
				L382.934,748.064C379.607,749.395,376.188,750.061,372.656,750.061z M126.383,594.014l246.365,97.363l250.999-97.547
				c-9.842-128.584-117.619-230.167-248.682-230.167C243.887,363.663,136.11,465.338,126.383,594.014z"/>
		</g>
		<g>
			<path d="M372.656,750.061c0,0-0.115,0-0.229,0c-13.489-0.115-25.097-9.842-27.529-23.172l-68.41-368.663
				c-2.868-15.348,7.295-30.19,22.666-32.989c15.371-2.937,30.076,7.272,32.944,22.643l41.775,225.098l44.988-222.941
				c3.097-15.302,17.917-25.419,33.379-22.115c15.371,3.12,25.213,18.032,22.115,33.333l-73.962,366.071
				C397.754,740.562,386.146,750.061,372.656,750.061z"/>
		</g>
	</g>
</g>
<g>
</g>
<g>
</g>
<g>
</g>
<g>
</g>
<g>
</g>
<g>
</g>
<g>
</g>
<g>
</g>
<g>
</g>
<g>
</g>
<g>
</g>
<g>
</g>
<g>
</g>
<g>
</g>
<g>
</g>
</svg>
